<?xml version="1.0" encoding="UTF-8"?><svg id="Layer_1" xmlns="http://www.w3.org/2000/svg" viewBox="0 0 1080 1080"><defs><style>.cls-1{fill:#2c327c;}</style></defs><path class="cls-1" d="M44.03,0V584.03c0,104.38,32.42,201.35,87.73,281.3,8.69,12.6,17.96,24.79,27.83,36.48,90.97,108.83,227.73,178.19,380.41,178.19,136.76,0,260.74-55.62,350.52-145.45,10.06-10.05,19.7-20.51,28.75-31.38,9.91-11.64,19.24-23.78,27.97-36.34,55.9-80.27,88.73-177.74,88.73-282.8V0H44.03ZM183.33,813.76l-8.55-11.56c-40.34-65.31-63.62-142.22-63.62-224.49V73.46h404.83V481.11L183.33,813.76Zm679.18,46.3c-78.64,89.73-194.07,146.49-322.51,146.49s-243.87-56.76-322.51-146.54l-6.87-9.28,328.11-328.1,329.6,329.6-5.82,7.83Zm106.33-282.35c0,82.27-23.28,159.23-63.62,224.58l-9.56,12.97-225.81-225.82v-119.61h114.79v-114.84h114.8v-114.8h69.4v337.52Zm0-404.65h-136.53v114.8h-114.8v114.84h-114.79v119.61l-41.25-41.25V73.46h407.37v99.6Z"/><g><polygon class="cls-1" points="572.32 815.04 443.68 943.68 396.21 896.22 477.39 815.04 396.21 733.87 443.68 686.4 572.32 815.04"/><rect class="cls-1" x="534.18" y="876.55" width="181.93" height="67.13"/></g><path class="cls-1" d="M274.51,131.64c-5.73-8.77-13.88-15.5-24.43-20.22-10.54-4.72-23.02-7.07-37.47-7.07h-74.49v154.73h52.17v-38.02h22.32c14.45,0,26.93-2.39,37.47-7.18,10.55-4.79,18.7-11.54,24.43-20.22,5.76-8.7,8.62-19.02,8.62-30.96s-2.86-22.29-8.62-31.06Zm-49.18,44.32c-3.47,3.25-8.81,4.87-16.03,4.87h-19.01v-36.25h19.01c7.22,0,12.56,1.62,16.03,4.86,3.45,3.24,5.2,7.66,5.2,13.26s-1.75,10.02-5.2,13.26Z"/><path class="cls-1" d="M361.7,313.36v65.43c-9.45,6.34-20.2,11.2-32.28,14.59-12.08,3.39-23.8,5.08-35.15,5.08-12.52,0-24.07-1.95-34.59-5.85-10.54-3.91-19.68-9.47-27.42-16.7-7.73-7.21-13.74-15.75-18.01-25.63-4.28-9.88-6.42-20.78-6.42-32.72s2.14-22.84,6.42-32.72c4.27-9.87,10.31-18.42,18.12-25.64,7.81-7.22,17.05-12.78,27.74-16.69,10.69-3.9,22.45-5.85,35.26-5.85,15.33,0,29,2.57,41.02,7.73,12,5.16,21.91,12.53,29.73,22.1l-33.38,29.41c-4.86-5.61-10.13-9.84-15.82-12.71-5.66-2.88-11.96-4.31-18.89-4.31-5.75,0-10.93,.88-15.58,2.65-4.64,1.76-8.6,4.35-11.83,7.74-3.24,3.39-5.74,7.44-7.52,12.15-1.77,4.72-2.65,10.1-2.65,16.14s.88,11.01,2.65,15.81c1.78,4.78,4.28,8.88,7.52,12.27,3.23,3.39,7.1,6,11.6,7.84,4.5,1.85,9.55,2.76,15.15,2.76,5.9,0,11.64-.99,17.23-2.98,.59-.21,1.18-.43,1.78-.68v-12.75h-29.4v-26.47h74.72Z"/><path class="cls-1" d="M380.11,544.94v-154.74h52.17v154.74h-52.17Z"/></svg>