<?xml version="1.0" encoding="UTF-8"?><svg id="Layer_1" xmlns="http://www.w3.org/2000/svg" viewBox="0 0 1080 358.93"><defs><style>.cls-1{fill:#2f2f83;}</style></defs><g><path class="cls-1" d="M416.56,35.83c4.8,4.08,7.2,10.35,7.2,18.81s-2.47,14.65-7.4,18.56c-4.93,3.92-12.46,5.88-22.58,5.88h-9.11v19.1h-15.28V29.71h24.2c10.51,0,18.17,2.04,22.97,6.12Zm-11.22,26.94c1.83-2.06,2.74-5.06,2.74-9.01s-1.19-6.76-3.58-8.42c-2.38-1.67-6.09-2.5-11.12-2.5h-8.72v23.02h10.28c5.1,0,8.55-1.03,10.38-3.09Z"/><path class="cls-1" d="M486.26,71.83c0,7.64-2.65,14.08-7.94,19.3-5.29,5.23-11.94,7.84-19.94,7.84s-14.64-2.61-19.94-7.84c-5.29-5.22-7.93-11.66-7.93-19.3s2.65-14.09,7.93-19.35c5.29-5.26,11.94-7.89,19.94-7.89s14.65,2.63,19.94,7.89c5.29,5.26,7.94,11.71,7.94,19.35Zm-40.95,0c0,4.31,1.23,7.82,3.67,10.53,2.45,2.71,5.59,4.07,9.4,4.07s6.96-1.35,9.4-4.07c2.45-2.71,3.68-6.22,3.68-10.53s-1.23-7.84-3.68-10.58c-2.45-2.74-5.58-4.12-9.4-4.12s-6.95,1.37-9.4,4.12c-2.45,2.74-3.67,6.27-3.67,10.58Z"/><path class="cls-1" d="M536.31,81.77c0,5.19-1.91,9.36-5.73,12.49-3.82,3.13-8.67,4.7-14.55,4.7-3.92,0-8-.7-12.25-2.11-4.25-1.4-8.07-3.48-11.46-6.22l6.46-9.21c5.49,4.25,11.33,6.37,17.54,6.37,1.89,0,3.4-.38,4.51-1.13,1.11-.75,1.66-1.75,1.66-2.99s-.77-2.38-2.3-3.43c-1.54-1.04-3.76-2.02-6.66-2.94-2.91-.91-5.13-1.7-6.66-2.35-1.53-.65-3.28-1.6-5.24-2.84-3.98-2.48-5.98-6.15-5.98-11.02s1.96-8.83,5.88-11.9c3.92-3.07,8.98-4.6,15.18-4.6s12.41,2.09,18.61,6.27l-5.49,9.8c-4.57-3.13-9.13-4.7-13.67-4.7s-6.81,1.24-6.81,3.72c0,1.37,.72,2.45,2.15,3.23,1.44,.78,3.82,1.7,7.15,2.74s5.7,1.85,7.1,2.4c1.41,.56,3.09,1.42,5.04,2.6,3.66,2.22,5.49,5.93,5.49,11.12Z"/><path class="cls-1" d="M564.72,56.06v23.61c0,2.03,.52,3.61,1.57,4.75,1.04,1.14,2.28,1.71,3.72,1.71,2.74,0,5.06-1.24,6.96-3.72l5.49,10.29c-4.57,4.18-9.39,6.27-14.45,6.27s-9.34-1.66-12.83-5c-3.5-3.33-5.24-7.87-5.24-13.62v-24.3h-6.17v-10.58h6.17v-15.77h14.79v15.77h12.73v10.58h-12.73Z"/><path class="cls-1" d="M629.28,89.27c-4.64,5.16-10.4,7.74-17.29,7.74s-12.7-2.33-17.44-7c-4.74-4.67-7.1-10.91-7.1-18.71s2.43-14.2,7.3-19.2c4.86-5,10.43-7.5,16.7-7.5s11.46,2.58,15.58,7.74v-6.96h14.7v45.95c0,4.7-.82,8.88-2.45,12.54s-3.82,6.53-6.56,8.62c-5.42,4.31-11.82,6.47-19.2,6.47-3.92,0-7.92-.64-12-1.91-4.08-1.27-7.66-3.09-10.73-5.44l5.68-11.07c4.83,3.66,9.95,5.49,15.33,5.49s9.65-1.34,12.78-4.02c3.13-2.68,4.7-6.92,4.7-12.74Zm-2.06-18.56c0-4.21-1.17-7.53-3.52-9.94-2.35-2.42-5.26-3.62-8.72-3.62s-6.45,1.21-8.96,3.62c-2.51,2.42-3.77,5.72-3.77,9.89s1.23,7.56,3.68,10.14c2.45,2.58,5.43,3.87,8.96,3.87s6.46-1.27,8.82-3.82c2.35-2.55,3.52-5.93,3.52-10.14Z"/><path class="cls-1" d="M683.35,58.41c-4.38,0-7.64,1.55-9.8,4.65-2.15,3.1-3.23,7.2-3.23,12.29v22.83h-14.7V45.48h14.7v6.95c1.89-2.15,4.26-3.98,7.1-5.49,2.84-1.5,5.73-2.28,8.67-2.35l.1,13.81h-2.84Z"/><path class="cls-1" d="M740.17,98.18h-13.81v-6.37c-3.79,4.77-8.47,7.15-14.06,7.15s-10.27-1.62-14.06-4.85c-3.79-3.23-5.68-7.54-5.68-12.93s1.96-9.42,5.88-12.1c3.92-2.68,9.28-4.02,16.07-4.02h10.97v-.29c0-5.61-2.97-8.42-8.92-8.42-2.55,0-5.24,.51-8.08,1.52-2.84,1.01-5.24,2.27-7.2,3.77l-6.56-9.5c6.92-5.03,14.82-7.54,23.71-7.54,6.4,0,11.62,1.6,15.67,4.8,4.05,3.2,6.07,8.26,6.07,15.19v33.6Zm-14.79-20.08v-2.55h-9.21c-5.88,0-8.82,1.83-8.82,5.49,0,1.89,.7,3.35,2.11,4.36,1.4,1.01,3.41,1.52,6.02,1.52s4.91-.8,6.91-2.4c1.99-1.6,2.99-3.74,2.99-6.42Z"/><path class="cls-1" d="M774.7,98.97c-6.24,0-11.8-2.65-16.7-7.93-4.9-5.29-7.35-11.85-7.35-19.69s2.38-14.25,7.15-19.25c4.77-5,10.35-7.5,16.75-7.5s11.62,2.25,15.67,6.76V25.5h14.7V98.18h-14.7v-6.96c-4.11,5.16-9.29,7.74-15.53,7.74Zm-9.26-27.04c0,4.25,1.27,7.72,3.82,10.43,2.55,2.71,5.52,4.07,8.92,4.07s6.28-1.35,8.67-4.07c2.38-2.71,3.58-6.2,3.58-10.48s-1.19-7.84-3.58-10.68c-2.38-2.84-5.31-4.26-8.76-4.26s-6.44,1.44-8.92,4.31c-2.48,2.87-3.72,6.43-3.72,10.68Z"/><path class="cls-1" d="M871.54,71.83c0,7.64-2.65,14.08-7.93,19.3-5.29,5.23-11.94,7.84-19.94,7.84s-14.65-2.61-19.94-7.84c-5.29-5.22-7.94-11.66-7.94-19.3s2.65-14.09,7.94-19.35c5.29-5.26,11.93-7.89,19.94-7.89s14.64,2.63,19.94,7.89c5.29,5.26,7.93,11.71,7.93,19.35Zm-40.95,0c0,4.31,1.23,7.82,3.68,10.53,2.45,2.71,5.58,4.07,9.4,4.07s6.95-1.35,9.4-4.07c2.45-2.71,3.67-6.22,3.67-10.53s-1.23-7.84-3.67-10.58c-2.45-2.74-5.59-4.12-9.4-4.12s-6.96,1.37-9.4,4.12c-2.45,2.74-3.68,6.27-3.68,10.58Z"/><path class="cls-1" d="M413.57,208.1c-5.94,5.61-12.91,8.43-20.91,8.43s-14.61-2.47-19.84-7.4c-5.22-4.93-7.84-11.55-7.84-19.84s2.66-14.89,7.98-19.79c5.32-4.9,11.61-7.35,18.86-7.35s13.4,2.19,18.47,6.56c5.06,4.38,7.59,10.38,7.59,18.03v7.84h-38.4c.46,2.87,1.96,5.22,4.5,7.05,2.55,1.83,5.42,2.74,8.62,2.74,5.16,0,9.4-1.73,12.73-5.19l8.23,8.92Zm-14.11-31.25c-2.02-1.7-4.49-2.55-7.4-2.55s-5.57,.88-7.98,2.65c-2.42,1.76-3.82,4.15-4.21,7.15h23.12c-.33-3.13-1.5-5.55-3.52-7.25Z"/><path class="cls-1" d="M443.15,186.35v29.39h-14.69v-52.7h14.69v5.88c4.44-4.51,9.44-6.76,14.99-6.76s10.2,1.96,13.96,5.88c3.75,3.92,5.63,9.15,5.63,15.67v32.03h-14.69v-29.78c0-8.1-2.97-12.15-8.92-12.15-2.94,0-5.5,1.06-7.69,3.18-2.19,2.12-3.28,5.24-3.28,9.36Z"/><path class="cls-1" d="M518.39,147.26h15.28v68.47h-15.28v-68.47Z"/><path class="cls-1" d="M563.26,186.35v29.39h-14.7v-52.7h14.7v5.88c4.44-4.51,9.43-6.76,14.99-6.76s10.2,1.96,13.96,5.88c3.75,3.92,5.63,9.15,5.63,15.67v32.03h-14.7v-29.78c0-8.1-2.97-12.15-8.91-12.15-2.94,0-5.5,1.06-7.69,3.18-2.19,2.12-3.28,5.24-3.28,9.36Z"/><path class="cls-1" d="M628.21,160v3.53h12.73v10.58h-12.73v41.63h-14.79v-41.63h-6.17v-10.58h6.17v-3.23c0-5.75,1.74-10.3,5.24-13.67,3.49-3.36,7.84-5.05,13.03-5.05s9.91,1.96,14.15,5.88l-5.29,9.89c-2.15-2.48-4.54-3.72-7.15-3.72-1.5,0-2.74,.54-3.72,1.62-.98,1.08-1.47,2.66-1.47,4.75Z"/><path class="cls-1" d="M701.48,189.38c0,7.65-2.65,14.08-7.93,19.3-5.29,5.22-11.94,7.84-19.94,7.84s-14.65-2.61-19.94-7.84c-5.29-5.22-7.94-11.66-7.94-19.3s2.65-14.09,7.94-19.34c5.29-5.26,11.93-7.89,19.94-7.89s14.64,2.63,19.94,7.89c5.29,5.26,7.93,11.71,7.93,19.34Zm-40.95,0c0,4.31,1.23,7.82,3.68,10.53,2.45,2.72,5.58,4.07,9.4,4.07s6.95-1.35,9.4-4.07c2.45-2.71,3.67-6.22,3.67-10.53s-1.23-7.84-3.67-10.58c-2.45-2.74-5.59-4.12-9.4-4.12s-6.96,1.37-9.4,4.12c-2.45,2.74-3.68,6.27-3.68,10.58Z"/><path class="cls-1" d="M740.08,175.97c-4.38,0-7.64,1.55-9.8,4.65-2.15,3.1-3.23,7.2-3.23,12.29v22.82h-14.7v-52.7h14.7v6.95c1.89-2.15,4.26-3.98,7.1-5.49,2.84-1.5,5.73-2.28,8.67-2.35l.1,13.81h-2.84Z"/><path class="cls-1" d="M801.01,187.33v28.41h-14.79v-28.8c0-4.18-.64-7.25-1.91-9.21-1.27-1.96-3.33-2.94-6.17-2.94s-5.35,1.06-7.54,3.18c-2.19,2.12-3.28,5.24-3.28,9.36v28.41h-14.69v-52.7h14.69v5.98c4.05-4.57,8.69-6.86,13.91-6.86,3.33,0,6.35,.98,9.06,2.94,2.71,1.96,4.75,4.34,6.12,7.15,2.02-3.2,4.75-5.68,8.18-7.45,3.43-1.76,6.87-2.65,10.33-2.65,6.2,0,11.2,1.85,14.99,5.54,3.79,3.69,5.68,9.03,5.68,16.02v32.03h-14.79v-28.8c0-8.1-2.97-12.15-8.92-12.15-2.94,0-5.49,1.06-7.64,3.18-2.15,2.12-3.23,5.24-3.23,9.36Z"/><path class="cls-1" d="M924.05,173.61v23.61c0,2.03,.52,3.61,1.57,4.75s2.28,1.71,3.72,1.71c2.74,0,5.06-1.24,6.95-3.72l5.49,10.29c-4.57,4.18-9.39,6.27-14.45,6.27s-9.34-1.67-12.83-5c-3.49-3.33-5.24-7.87-5.24-13.62v-24.3h-6.17v-10.58h6.17v-15.77h14.79v15.77h12.73v10.58h-12.73Z"/><path class="cls-1" d="M950.84,156.32c-1.66-1.66-2.5-3.71-2.5-6.12s.84-4.46,2.5-6.12c1.67-1.66,3.71-2.5,6.12-2.5s4.46,.83,6.12,2.5c1.67,1.66,2.5,3.71,2.5,6.12s-.83,4.46-2.5,6.12c-1.66,1.66-3.71,2.5-6.12,2.5s-4.46-.83-6.12-2.5Zm13.47,59.41h-14.69v-52.7h14.69v52.7Z"/><path class="cls-1" d="M1003.49,203.49c4.9,0,9.31-2.45,13.22-7.34l8.72,9.79c-6.79,7.05-14.14,10.58-22.04,10.58s-14.58-2.5-20.03-7.5c-5.45-5-8.18-11.53-8.18-19.59s2.76-14.63,8.28-19.69c5.52-5.06,12.06-7.59,19.64-7.59,3.79,0,7.62,.78,11.51,2.35,3.89,1.57,7.3,3.89,10.24,6.96l-7.64,9.99c-1.7-2.02-3.77-3.59-6.22-4.7-2.45-1.11-4.88-1.66-7.3-1.66-3.86,0-7.17,1.26-9.95,3.77-2.77,2.51-4.16,6.01-4.16,10.48s1.39,7.95,4.16,10.43c2.78,2.48,6.03,3.72,9.75,3.72Z"/><path class="cls-1" d="M1080,215.74h-13.81v-6.37c-3.79,4.77-8.47,7.15-14.06,7.15s-10.27-1.62-14.06-4.85c-3.79-3.23-5.68-7.54-5.68-12.93s1.96-9.42,5.88-12.1c3.92-2.68,9.27-4.02,16.06-4.02h10.97v-.29c0-5.61-2.97-8.42-8.92-8.42-2.55,0-5.24,.51-8.08,1.52-2.84,1.01-5.24,2.27-7.2,3.77l-6.56-9.5c6.92-5.03,14.82-7.54,23.71-7.54,6.4,0,11.62,1.6,15.67,4.8,4.05,3.2,6.07,8.26,6.07,15.19v33.6Zm-14.8-20.08v-2.55h-9.21c-5.88,0-8.82,1.83-8.82,5.49,0,1.89,.7,3.34,2.1,4.36,1.41,1.02,3.41,1.52,6.02,1.52s4.92-.79,6.91-2.4c1.99-1.6,2.99-3.74,2.99-6.42Z"/><path class="cls-1" d="M387.51,315.61c2.55,3.17,5.98,4.75,10.28,4.75s7.72-1.58,10.24-4.75c2.51-3.17,3.77-7.5,3.77-12.98v-37.81h15.28v38.3c0,9.93-2.74,17.55-8.23,22.87-5.49,5.32-12.51,7.98-21.06,7.98s-15.59-2.68-21.11-8.04c-5.52-5.35-8.28-12.96-8.28-22.82v-38.3h15.28v37.81c0,5.49,1.27,9.81,3.82,12.98Z"/><path class="cls-1" d="M504.28,290.19l-18.52,37.42h-9.11l-18.42-37.42v43.1h-15.28v-68.47h20.67l17.63,37.62,17.73-37.62h20.57v68.47h-15.28v-43.1Z"/><path class="cls-1" d="M552.43,278.49c-1.47,1.21-2.2,2.8-2.2,4.8s.9,3.58,2.69,4.75c1.8,1.17,5.94,2.56,12.44,4.16,6.5,1.6,11.54,4,15.14,7.2,3.59,3.2,5.39,7.87,5.39,14.01s-2.3,11.12-6.91,14.94c-4.6,3.82-10.66,5.73-18.17,5.73-10.84,0-20.61-4.01-29.29-12.05l9.11-11.17c7.38,6.47,14.2,9.7,20.47,9.7,2.81,0,5.01-.6,6.61-1.81,1.6-1.21,2.4-2.84,2.4-4.9s-.85-3.69-2.55-4.89c-1.7-1.21-5.06-2.44-10.09-3.68-7.97-1.89-13.8-4.36-17.48-7.4-3.69-3.04-5.54-7.8-5.54-14.3s2.34-11.51,7.01-15.04,10.5-5.29,17.48-5.29c4.57,0,9.14,.78,13.72,2.35,4.57,1.57,8.55,3.79,11.95,6.66l-7.74,11.17c-5.95-4.51-12.08-6.76-18.42-6.76-2.55,0-4.56,.6-6.02,1.81Z"/><path class="cls-1" d="M646.91,333.3l-6.37-14.79h-28.7l-6.37,14.79h-16.26l29.58-68.47h14.79l29.59,68.47h-16.26Zm-20.67-48.1l-8.62,19.89h17.14l-8.52-19.89Z"/><path class="cls-1" d="M893.66,215.74h-13.8v-6.36c-3.78,4.76-8.47,7.14-14.05,7.14s-10.26-1.62-14.04-4.85c-3.79-3.23-5.68-7.54-5.68-12.92s1.96-9.41,5.87-12.09c3.91-2.68,9.26-4.01,16.05-4.01h10.96v-.29c0-5.61-2.97-8.42-8.91-8.42-2.54,0-5.24,.51-8.07,1.52-2.84,1.01-5.24,2.27-7.2,3.77l-6.56-9.49c6.91-5.02,14.81-7.54,23.69-7.54,6.4,0,11.61,1.6,15.66,4.8,4.05,3.2,6.07,8.26,6.07,15.17v33.57Zm-14.78-20.06v-2.54h-9.2c-5.87,0-8.81,1.83-8.81,5.48,0,1.9,.7,3.35,2.11,4.36,1.4,1.01,3.41,1.52,6.02,1.52s4.91-.8,6.9-2.4c1.99-1.6,2.98-3.74,2.98-6.41Zm-2.84-39.74h-14l12.43-17.32,15.17,6.36-13.61,10.96Z"/></g><g><rect class="cls-1" x="80.6" y="104.6" width="23.49" height="8.78"/><path class="cls-1" d="M0,.64V194.39C0,229.02,10.76,261.19,29.11,287.71c2.88,4.18,5.96,8.22,9.23,12.1,30.18,36.11,75.55,59.12,126.2,59.12,45.37,0,86.5-18.45,116.29-48.25,3.33-3.33,6.53-6.8,9.54-10.41,3.29-3.86,6.38-7.89,9.28-12.06,18.54-26.63,29.44-58.97,29.44-93.82V.64H0ZM46.22,270.6l-2.84-3.83c-13.38-21.67-21.11-47.18-21.11-74.48V25.01H156.57V160.25l-110.36,110.36Zm225.31,15.36c-26.09,29.77-64.38,48.6-106.99,48.6s-80.9-18.83-106.99-48.61l-2.28-3.08,108.85-108.85,109.34,109.34-1.93,2.6Zm35.28-93.67c0,27.29-7.73,52.82-21.11,74.51l-3.17,4.3-74.91-74.91v-39.68h38.08v-38.1h38.08v-38.08h23.02v111.97Zm0-134.24h-45.3v38.08h-38.08v38.1h-38.08v39.68l-13.69-13.69V25.01h135.15V58.05Z"/><g><polygon class="cls-1" points="175.26 271.03 132.58 313.71 116.84 297.96 143.77 271.03 116.84 244.1 132.58 228.35 175.26 271.03"/><rect class="cls-1" x="162.61" y="291.44" width="60.35" height="22.27"/></g><path class="cls-1" d="M31.21,86.59V35.26h24.71c4.79,0,8.93,.78,12.43,2.35,3.5,1.57,6.2,3.8,8.1,6.71,1.91,2.91,2.86,6.34,2.86,10.3s-.95,7.38-2.86,10.27c-1.9,2.88-4.61,5.12-8.1,6.71-3.5,1.59-7.64,2.38-12.43,2.38h-15.11l7.7-7.41v20.02H31.21Zm17.31-18.11l-7.7-7.85h14.01c2.39,0,4.17-.54,5.32-1.61,1.15-1.07,1.72-2.54,1.72-4.4s-.58-3.32-1.72-4.4c-1.15-1.07-2.92-1.61-5.32-1.61h-14.01l7.7-7.85v27.72Z"/><path class="cls-1" d="M83.02,132.83c-4.15,0-7.99-.65-11.48-1.94-3.5-1.3-6.53-3.14-9.1-5.54-2.57-2.39-4.56-5.23-5.97-8.5-1.42-3.28-2.13-6.89-2.13-10.86s.71-7.58,2.13-10.85c1.41-3.27,3.42-6.11,6.01-8.51,2.59-2.39,5.66-4.24,9.2-5.54s7.45-1.94,11.7-1.94c5.08,0,9.62,.85,13.61,2.57,3.98,1.71,7.27,4.16,9.87,7.33l-11.08,9.75c-1.61-1.86-3.36-3.26-5.25-4.22-1.88-.95-3.97-1.43-6.27-1.43-1.91,0-3.63,.29-5.17,.88-1.54,.58-2.85,1.44-3.93,2.57s-1.9,2.47-2.49,4.03c-.58,1.57-.88,3.35-.88,5.35s.29,3.66,.88,5.25c.59,1.59,1.42,2.95,2.49,4.07s2.36,1.99,3.85,2.6c1.49,.61,3.17,.92,5.03,.92,1.96,0,3.86-.33,5.72-.99,1.86-.66,3.84-1.8,5.94-3.41l9.68,11.88c-3.13,2.1-6.7,3.72-10.71,4.84-4.01,1.12-7.9,1.69-11.66,1.69Zm7.33-8.73v-19.51h15.03v21.71l-15.03-2.2Z"/><path class="cls-1" d="M111.5,181.42v-51.33h17.31v51.33h-17.31Z"/></g></svg>